<svg width="98" height="60" viewBox="0 0 98 60" fill="none" xmlns="http://www.w3.org/2000/svg">
<g opacity="0.3">
<path d="M3.34995 5.42069C4.80541 5.42069 5.98529 4.26162 5.98529 2.83181C5.98529 1.40201 4.80541 0.24292 3.34995 0.24292C1.89448 0.24292 0.7146 1.40201 0.7146 2.83181C0.7146 4.26162 1.89448 5.42069 3.34995 5.42069Z" fill="#EF8A2C"/>
<path d="M21.7581 5.42063C23.2136 5.42063 24.3934 4.26156 24.3934 2.83176C24.3934 1.40195 23.2136 0.242859 21.7581 0.242859C20.3026 0.242859 19.1227 1.40195 19.1227 2.83176C19.1227 4.26156 20.3026 5.42063 21.7581 5.42063Z" fill="#EF8A2C"/>
<path d="M40.1529 5.42063C41.6084 5.42063 42.7883 4.26156 42.7883 2.83176C42.7883 1.40195 41.6084 0.242859 40.1529 0.242859C38.6974 0.242859 37.5175 1.40195 37.5175 2.83176C37.5175 4.26156 38.6974 5.42063 40.1529 5.42063Z" fill="#EF8A2C"/>
<path d="M58.5618 5.42063C60.0172 5.42063 61.1971 4.26156 61.1971 2.83176C61.1971 1.40195 60.0172 0.242859 58.5618 0.242859C57.1063 0.242859 55.9265 1.40195 55.9265 2.83176C55.9265 4.26156 57.1063 5.42063 58.5618 5.42063Z" fill="#EF8A2C"/>
<path d="M76.9562 5.42063C78.4117 5.42063 79.5915 4.26156 79.5915 2.83176C79.5915 1.40195 78.4117 0.242859 76.9562 0.242859C75.5007 0.242859 74.3209 1.40195 74.3209 2.83176C74.3209 4.26156 75.5007 5.42063 76.9562 5.42063Z" fill="#EF8A2C"/>
<path d="M95.3646 5.42063C96.8201 5.42063 98 4.26156 98 2.83176C98 1.40195 96.8201 0.242859 95.3646 0.242859C93.9092 0.242859 92.7293 1.40195 92.7293 2.83176C92.7293 4.26156 93.9092 5.42063 95.3646 5.42063Z" fill="#EF8A2C"/>
<path d="M3.34965 23.4909C4.80511 23.4909 5.985 22.3318 5.985 20.902C5.985 19.4722 4.80511 18.3131 3.34965 18.3131C1.89418 18.3131 0.714294 19.4722 0.714294 20.902C0.714294 22.3318 1.89418 23.4909 3.34965 23.4909Z" fill="#EF8A2C"/>
<path d="M21.7581 23.4909C23.2136 23.4909 24.3935 22.3318 24.3935 20.902C24.3935 19.4722 23.2136 18.3131 21.7581 18.3131C20.3026 18.3131 19.1227 19.4722 19.1227 20.902C19.1227 22.3318 20.3026 23.4909 21.7581 23.4909Z" fill="#EF8A2C"/>
<path d="M40.1533 23.4909C41.6088 23.4909 42.7886 22.3318 42.7886 20.902C42.7886 19.4722 41.6088 18.3131 40.1533 18.3131C38.6978 18.3131 37.5179 19.4722 37.5179 20.902C37.5179 22.3318 38.6978 23.4909 40.1533 23.4909Z" fill="#EF8A2C"/>
<path d="M58.5618 23.4909C60.0172 23.4909 61.1971 22.3318 61.1971 20.902C61.1971 19.4722 60.0172 18.3131 58.5618 18.3131C57.1063 18.3131 55.9265 19.4722 55.9265 20.902C55.9265 22.3318 57.1063 23.4909 58.5618 23.4909Z" fill="#EF8A2C"/>
<path d="M76.9562 23.4909C78.4117 23.4909 79.5915 22.3318 79.5915 20.902C79.5915 19.4722 78.4117 18.3131 76.9562 18.3131C75.5007 18.3131 74.3209 19.4722 74.3209 20.902C74.3209 22.3318 75.5007 23.4909 76.9562 23.4909Z" fill="#EF8A2C"/>
<path d="M95.3646 23.4909C96.8201 23.4909 98 22.3318 98 20.902C98 19.4722 96.8201 18.3131 95.3646 18.3131C93.9092 18.3131 92.7293 19.4722 92.7293 20.902C92.7293 22.3318 93.9092 23.4909 95.3646 23.4909Z" fill="#EF8A2C"/>
<path d="M3.34965 41.575C4.80511 41.575 5.985 40.4159 5.985 38.9861C5.985 37.5563 4.80511 36.3972 3.34965 36.3972C1.89418 36.3972 0.714294 37.5563 0.714294 38.9861C0.714294 40.4159 1.89418 41.575 3.34965 41.575Z" fill="#EF8A2C"/>
<path d="M21.7581 41.575C23.2136 41.575 24.3935 40.4159 24.3935 38.9861C24.3935 37.5563 23.2136 36.3972 21.7581 36.3972C20.3026 36.3972 19.1227 37.5563 19.1227 38.9861C19.1227 40.4159 20.3026 41.575 21.7581 41.575Z" fill="#EF8A2C"/>
<path d="M40.1533 41.575C41.6088 41.575 42.7886 40.4159 42.7886 38.9861C42.7886 37.5563 41.6088 36.3972 40.1533 36.3972C38.6978 36.3972 37.5179 37.5563 37.5179 38.9861C37.5179 40.4159 38.6978 41.575 40.1533 41.575Z" fill="#EF8A2C"/>
<path d="M58.5618 41.575C60.0172 41.575 61.1971 40.4159 61.1971 38.9861C61.1971 37.5563 60.0172 36.3972 58.5618 36.3972C57.1063 36.3972 55.9265 37.5563 55.9265 38.9861C55.9265 40.4159 57.1063 41.575 58.5618 41.575Z" fill="#EF8A2C"/>
<path d="M76.9562 41.575C78.4117 41.575 79.5915 40.4159 79.5915 38.9861C79.5915 37.5563 78.4117 36.3972 76.9562 36.3972C75.5007 36.3972 74.3209 37.5563 74.3209 38.9861C74.3209 40.4159 75.5007 41.575 76.9562 41.575Z" fill="#EF8A2C"/>
<path d="M95.3646 41.575C96.8201 41.575 98 40.4159 98 38.9861C98 37.5563 96.8201 36.3972 95.3646 36.3972C93.9092 36.3972 92.7293 37.5563 92.7293 38.9861C92.7293 40.4159 93.9092 41.575 95.3646 41.575Z" fill="#EF8A2C"/>
<path d="M3.34965 59.6453C4.80511 59.6453 5.985 58.4862 5.985 57.0564C5.985 55.6266 4.80511 54.4675 3.34965 54.4675C1.89418 54.4675 0.714294 55.6266 0.714294 57.0564C0.714294 58.4862 1.89418 59.6453 3.34965 59.6453Z" fill="#EF8A2C"/>
<path d="M21.7581 59.6453C23.2136 59.6453 24.3935 58.4862 24.3935 57.0564C24.3935 55.6266 23.2136 54.4675 21.7581 54.4675C20.3026 54.4675 19.1227 55.6266 19.1227 57.0564C19.1227 58.4862 20.3026 59.6453 21.7581 59.6453Z" fill="#EF8A2C"/>
<path d="M40.1533 59.6453C41.6088 59.6453 42.7886 58.4862 42.7886 57.0564C42.7886 55.6266 41.6088 54.4675 40.1533 54.4675C38.6978 54.4675 37.5179 55.6266 37.5179 57.0564C37.5179 58.4862 38.6978 59.6453 40.1533 59.6453Z" fill="#EF8A2C"/>
<path d="M58.5618 59.6453C60.0172 59.6453 61.1971 58.4862 61.1971 57.0564C61.1971 55.6266 60.0172 54.4675 58.5618 54.4675C57.1063 54.4675 55.9265 55.6266 55.9265 57.0564C55.9265 58.4862 57.1063 59.6453 58.5618 59.6453Z" fill="#EF8A2C"/>
<path d="M76.9562 59.6453C78.4117 59.6453 79.5915 58.4862 79.5915 57.0564C79.5915 55.6266 78.4117 54.4675 76.9562 54.4675C75.5007 54.4675 74.3209 55.6266 74.3209 57.0564C74.3209 58.4862 75.5007 59.6453 76.9562 59.6453Z" fill="#EF8A2C"/>
<path d="M95.3646 59.6453C96.8201 59.6453 98 58.4862 98 57.0564C98 55.6266 96.8201 54.4675 95.3646 54.4675C93.9092 54.4675 92.7293 55.6266 92.7293 57.0564C92.7293 58.4862 93.9092 59.6453 95.3646 59.6453Z" fill="#EF8A2C"/>
</g>
</svg>
