<svg width="615" height="387" viewBox="0 0 615 387" fill="none" xmlns="http://www.w3.org/2000/svg">
<g opacity="0.3">
<path d="M147.108 114.723L155.103 122.729" stroke="#1F1745" stroke-width="3" stroke-miterlimit="10" stroke-linecap="round" stroke-linejoin="round"/>
<path d="M155.103 114.723L147.108 122.729" stroke="#1F1745" stroke-width="3" stroke-miterlimit="10" stroke-linecap="round" stroke-linejoin="round"/>
<path d="M605.421 303.527L613.417 311.534" stroke="#1F1745" stroke-width="3" stroke-miterlimit="10" stroke-linecap="round" stroke-linejoin="round"/>
<path d="M613.417 303.527L605.421 311.534" stroke="#1F1745" stroke-width="3" stroke-miterlimit="10" stroke-linecap="round" stroke-linejoin="round"/>
<path d="M168.566 373.915V385.238" stroke="#1F1745" stroke-width="3" stroke-miterlimit="10" stroke-linecap="round" stroke-linejoin="round"/>
<path d="M174.234 379.576H162.914" stroke="#1F1745" stroke-width="3" stroke-miterlimit="10" stroke-linecap="round" stroke-linejoin="round"/>
<path d="M15.9028 187.042C15.9028 190.834 12.8311 193.923 9.03131 193.923C5.24473 193.923 2.15985 190.847 2.15985 187.042C2.15985 183.251 5.23149 180.162 9.03131 180.162C12.8311 180.175 15.9028 183.251 15.9028 187.042Z" stroke="#1F1745" stroke-width="3" stroke-miterlimit="10" stroke-linecap="round" stroke-linejoin="round"/>
<path d="M420.305 8.88087C420.305 12.6726 417.233 15.7617 413.433 15.7617C409.647 15.7617 406.562 12.6859 406.562 8.88087C406.562 5.0891 409.634 2 413.433 2C417.233 2.01326 420.305 5.0891 420.305 8.88087Z" stroke="#1F1745" stroke-width="3" stroke-miterlimit="10" stroke-linecap="round" stroke-linejoin="round"/>
<path d="M521.116 353.26C521.116 357.051 518.044 360.14 514.244 360.14C510.458 360.14 507.373 357.065 507.373 353.26C507.373 349.468 510.444 346.379 514.244 346.379C518.044 346.392 521.116 349.468 521.116 353.26Z" stroke="#1F1745" stroke-width="3" stroke-miterlimit="10" stroke-linecap="round" stroke-linejoin="round"/>
</g>
</svg>
